C:\Users\Nick\Projects\MRSDeviceOpt\results\experiments\subject02\walk2\expdata\ground_reaction.mot
version=1
nRows=55
nColumns=19
inDegrees=no
endheader
time	ground_force_r_vx	ground_force_r_vy	ground_force_r_vz	ground_force_r_px	ground_force_r_py	ground_force_r_pz	ground_force_l_vx	ground_force_l_vy	ground_force_l_vz	ground_force_l_px	ground_force_l_py	ground_force_l_pz	ground_torque_r_x	ground_torque_r_y	ground_torque_r_z	ground_torque_l_x	ground_torque_l_y	ground_torque_l_z
0.008333	1.027920	634.810242	-42.139507	0.787651	0.000000	-0.414069	-0.242747	0.531072	-0.238849	0.000000	0.000000	0.000000	-0.000000	0.767964	-0.000000	0.000000	0.000000	0.000000
0.009375	1.696591	635.964172	-40.984417	0.787399	0.000000	-0.413780	-0.284734	0.745935	-0.288704	0.000000	0.000000	0.000000	-0.000000	0.833727	-0.000000	0.000000	0.000000	0.000000
0.010417	2.380494	637.159912	-39.814735	0.787124	0.000000	-0.413499	-0.328230	0.962740	-0.336541	0.000000	0.000000	0.000000	-0.000000	0.901261	-0.000000	0.000000	0.000000	0.000000
0.011458	3.073926	638.393555	-38.644753	0.786824	0.000000	-0.413226	-0.373088	1.178534	-0.380744	0.000000	0.000000	0.000000	-0.000000	0.970388	-0.000000	0.000000	0.000000	0.000000
0.012500	3.771862	639.662170	-37.487595	0.786498	0.000000	-0.412962	-0.419161	1.390642	-0.419732	0.000000	0.000000	0.000000	-0.000000	1.040922	-0.000000	0.000000	0.000000	0.000000
0.013542	4.469882	640.963379	-36.355167	0.786147	0.000000	-0.412708	-0.466275	1.596712	-0.451995	0.000000	0.000000	0.000000	-0.000000	1.112671	-0.000000	0.000000	0.000000	0.000000
0.014583	5.164138	642.294922	-35.258072	0.785768	0.000000	-0.412464	-0.514218	1.794740	-0.476129	0.000000	0.000000	0.000000	-0.000000	1.185440	-0.000000	0.000000	0.000000	0.000000
0.015625	5.851367	643.655029	-34.205532	0.785361	0.000000	-0.412231	-0.562726	1.983107	-0.490872	0.000000	0.000000	0.000000	-0.000000	1.259029	-0.000000	0.000000	0.000000	0.000000
0.016667	6.528883	645.041626	-33.205326	0.784926	0.000000	-0.412010	-0.611486	2.160585	-0.495124	0.000000	0.000000	0.000000	-0.000000	1.333235	-0.000000	0.000000	0.000000	0.000000
0.017708	7.194582	646.453003	-32.263775	0.784463	0.000000	-0.411802	-0.660140	2.326334	-0.487981	0.000000	0.000000	0.000000	-0.000000	1.407857	-0.000000	0.000000	0.000000	0.000000
0.018750	7.846912	647.887268	-31.385775	0.783971	0.000000	-0.411605	-0.708287	2.479879	-0.468750	0.000000	0.000000	0.000000	-0.000000	1.482690	-0.000000	0.000000	0.000000	0.000000
0.019792	8.484845	649.342468	-30.574856	0.783450	0.000000	-0.411422	-0.755495	2.621068	-0.436972	0.000000	0.000000	0.000000	-0.000000	1.557532	-0.000000	0.000000	0.000000	0.000000
0.020833	9.107829	650.816833	-29.833284	0.782901	0.000000	-0.411252	-0.801315	2.750024	-0.392431	0.000000	0.000000	0.000000	-0.000000	1.632181	-0.000000	0.000000	0.000000	0.000000
0.021875	9.715723	652.308472	-29.162184	0.782323	0.000000	-0.411095	-0.845286	2.867083	-0.335170	0.000000	0.000000	0.000000	-0.000000	1.706441	-0.000000	0.000000	0.000000	0.000000
0.022917	10.308738	653.815491	-28.561663	0.781717	0.000000	-0.410951	-0.886951	2.972732	-0.265492	0.000000	0.000000	0.000000	-0.000000	1.780116	-0.000000	0.000000	0.000000	0.000000
0.023958	10.887363	655.336121	-28.030941	0.781083	0.000000	-0.410821	-0.925869	3.067537	-0.183965	0.000000	0.000000	0.000000	-0.000000	1.853017	-0.000000	0.000000	0.000000	0.000000
0.025000	11.452308	656.868591	-27.568478	0.780423	0.000000	-0.410703	-0.961623	3.152091	-0.091420	0.000000	0.000000	0.000000	-0.000000	1.924961	-0.000000	0.000000	0.000000	0.000000
0.026042	12.004427	658.411133	-27.172073	0.779737	0.000000	-0.410599	-0.993833	3.226955	0.011053	0.000000	0.000000	0.000000	-0.000000	1.995770	-0.000000	0.000000	0.000000	0.000000
0.027083	12.544678	659.962036	-26.838966	0.779025	0.000000	-0.410507	-1.022165	3.292624	0.122119	0.000000	0.000000	0.000000	-0.000000	2.065273	-0.000000	0.000000	0.000000	0.000000
0.028125	13.074064	661.519836	-26.565907	0.778288	0.000000	-0.410427	-1.046338	3.349496	0.240208	0.000000	0.000000	0.000000	-0.000000	2.133310	-0.000000	0.000000	0.000000	0.000000
0.029167	13.593605	663.083008	-26.349220	0.777529	0.000000	-0.410359	-1.066132	3.397861	0.363536	0.000000	0.000000	0.000000	-0.000000	2.199725	-0.000000	0.000000	0.000000	0.000000
0.030208	14.104303	664.650085	-26.184851	0.776747	0.000000	-0.410303	-1.081391	3.437906	0.490134	0.000000	0.000000	0.000000	-0.000000	2.264376	-0.000000	0.000000	0.000000	0.000000
0.031250	14.607126	666.219971	-26.068401	0.775944	0.000000	-0.410257	-1.092026	3.469728	0.617874	0.000000	0.000000	0.000000	-0.000000	2.327127	-0.000000	0.000000	0.000000	0.000000
0.032292	15.102998	667.791443	-25.995171	0.775121	0.000000	-0.410222	-1.098014	3.493367	0.744514	0.000000	0.000000	0.000000	-0.000000	2.387856	-0.000000	0.000000	0.000000	0.000000
0.033333	15.592791	669.363464	-25.960196	0.774280	0.000000	-0.410197	-1.099393	3.508838	0.867738	0.000000	0.000000	0.000000	-0.000000	2.446450	-0.000000	0.000000	0.000000	0.000000
0.034375	16.077328	670.935242	-25.958284	0.773421	0.000000	-0.410181	-1.096259	3.516177	0.985214	0.000000	0.000000	0.000000	-0.000000	2.502806	-0.000000	0.000000	0.000000	0.000000
0.035417	16.557392	672.505859	-25.984076	0.772547	0.000000	-0.410173	-1.088754	3.515482	1.094649	0.000000	0.000000	0.000000	-0.000000	2.556834	-0.000000	0.000000	0.000000	0.000000
0.036458	17.033733	674.074646	-26.032103	0.771658	0.000000	-0.410173	-1.077062	3.506958	1.193848	0.000000	0.000000	0.000000	-0.000000	2.608456	-0.000000	0.000000	0.000000	0.000000
0.037500	17.507082	675.640991	-26.096867	0.770756	0.000000	-0.410180	-1.061399	3.490953	1.280784	0.000000	0.000000	0.000000	-0.000000	2.657604	-0.000000	0.000000	0.000000	0.000000
0.038542	17.978167	677.204224	-26.172935	0.769842	0.000000	-0.410194	-1.042004	3.467989	1.353648	0.000000	0.000000	0.000000	-0.000000	2.704224	-0.000000	0.000000	0.000000	0.000000
0.039583	18.447727	678.763855	-26.255041	0.768918	0.000000	-0.410213	-1.019136	3.438778	1.410918	0.000000	0.000000	0.000000	-0.000000	2.748272	-0.000000	0.000000	0.000000	0.000000
0.040625	18.916534	680.319275	-26.338194	0.767985	0.000000	-0.410238	-0.993068	3.404228	1.451398	0.000000	0.000000	0.000000	-0.000000	2.789717	-0.000000	0.000000	0.000000	0.000000
0.041667	19.385405	681.869873	-26.417797	0.767044	0.000000	-0.410267	-0.964091	3.365438	1.474265	0.000000	0.000000	0.000000	-0.000000	2.828539	-0.000000	0.000000	0.000000	0.000000
0.042708	19.855206	683.415100	-26.489765	0.766096	0.000000	-0.410300	-0.932511	3.323670	1.479090	0.000000	0.000000	0.000000	-0.000000	2.864729	-0.000000	0.000000	0.000000	0.000000
0.043750	20.326866	684.954163	-26.550625	0.765143	0.000000	-0.410336	-0.898654	3.280319	1.465858	0.000000	0.000000	0.000000	-0.000000	2.898290	-0.000000	0.000000	0.000000	0.000000
0.044792	20.801378	686.486389	-26.597622	0.764186	0.000000	-0.410375	-0.862868	3.236866	1.434959	0.000000	0.000000	0.000000	-0.000000	2.929236	-0.000000	0.000000	0.000000	0.000000
0.045833	21.279791	688.010925	-26.628794	0.763226	0.000000	-0.410416	-0.825527	3.194813	1.387182	0.000000	0.000000	0.000000	-0.000000	2.957589	-0.000000	0.000000	0.000000	0.000000
0.046875	21.763186	689.526978	-26.643021	0.762263	0.000000	-0.410459	-0.787035	3.155627	1.323682	0.000000	0.000000	0.000000	-0.000000	2.983385	-0.000000	0.000000	0.000000	0.000000
0.047917	22.252668	691.033630	-26.640062	0.761299	0.000000	-0.410502	-0.747817	3.120668	1.245941	0.000000	0.000000	0.000000	-0.000000	3.006666	-0.000000	0.000000	0.000000	0.000000
0.048958	22.749334	692.529846	-26.620548	0.760335	0.000000	-0.410546	-0.708326	3.091125	1.155725	0.000000	0.000000	0.000000	-0.000000	3.027487	-0.000000	0.000000	0.000000	0.000000
0.050000	23.254240	694.014709	-26.585941	0.759371	0.000000	-0.410590	-0.669026	3.067952	1.055023	0.000000	0.000000	0.000000	-0.000000	3.045907	-0.000000	0.000000	0.000000	0.000000
0.051042	23.768362	695.487244	-26.538479	0.758409	0.000000	-0.410633	-0.630397	3.051816	0.945994	0.000000	0.000000	0.000000	-0.000000	3.061998	-0.000000	0.000000	0.000000	0.000000
0.052083	24.292572	696.946533	-26.481075	0.757448	0.000000	-0.410676	-0.592911	3.043059	0.830904	0.000000	0.000000	0.000000	-0.000000	3.075836	-0.000000	0.000000	0.000000	0.000000
0.053125	24.827593	698.391602	-26.417191	0.756490	0.000000	-0.410718	-0.557033	3.041667	0.712065	0.000000	0.000000	0.000000	-0.000000	3.087507	-0.000000	0.000000	0.000000	0.000000
0.054167	25.373981	699.821655	-26.350698	0.755534	0.000000	-0.410759	-0.523204	3.047270	0.591779	0.000000	0.000000	0.000000	-0.000000	3.097102	-0.000000	0.000000	0.000000	0.000000
0.055208	25.932095	701.235962	-26.285717	0.754582	0.000000	-0.410798	-0.491833	3.059147	0.472281	0.000000	0.000000	0.000000	-0.000000	3.104719	-0.000000	0.000000	0.000000	0.000000
0.056250	26.502079	702.633972	-26.226437	0.753633	0.000000	-0.410835	-0.463287	3.076261	0.355689	0.000000	0.000000	0.000000	-0.000000	3.110460	-0.000000	0.000000	0.000000	0.000000
0.057292	27.083866	704.015259	-26.176952	0.752688	0.000000	-0.410870	-0.437883	3.097305	0.243957	0.000000	0.000000	0.000000	-0.000000	3.114434	-0.000000	0.000000	0.000000	0.000000
0.058333	27.677174	705.379578	-26.141087	0.751747	0.000000	-0.410904	-0.415886	3.120769	0.138834	0.000000	0.000000	0.000000	-0.000000	3.116754	-0.000000	0.000000	0.000000	0.000000
0.059375	28.281523	706.727051	-26.122232	0.750810	0.000000	-0.410934	-0.397500	3.145010	0.041829	0.000000	0.000000	0.000000	-0.000000	3.117535	-0.000000	0.000000	0.000000	0.000000
0.060417	28.896257	708.057861	-26.123219	0.749877	0.000000	-0.410963	-0.382868	3.168343	-0.045816	0.000000	0.000000	0.000000	-0.000000	3.116898	-0.000000	0.000000	0.000000	0.000000
0.061458	29.520573	709.372559	-26.146183	0.748947	0.000000	-0.410989	-0.372071	3.189125	-0.123150	0.000000	0.000000	0.000000	-0.000000	3.114965	-0.000000	0.000000	0.000000	0.000000
0.062500	30.153559	710.671875	-26.192492	0.748022	0.000000	-0.411013	-0.365130	3.205840	-0.189523	0.000000	0.000000	0.000000	-0.000000	3.111862	-0.000000	0.000000	0.000000	0.000000
0.063542	30.794243	711.956970	-26.262682	0.747100	0.000000	-0.411034	-0.362001	3.217182	-0.244590	0.000000	0.000000	0.000000	-0.000000	3.107714	-0.000000	0.000000	0.000000	0.000000
0.064583	31.441629	713.229004	-26.356443	0.746181	0.000000	-0.411052	-0.362585	3.222119	-0.288308	0.000000	0.000000	0.000000	-0.000000	3.102649	-0.000000	0.000000	0.000000	0.000000
